<?xml version="1.0" encoding="UTF-8" standalone="no"?>
<!-- Created with Inkscape (http://www.inkscape.org/) -->

<svg
   xmlns:dc="http://purl.org/dc/elements/1.1/"
   xmlns:cc="http://creativecommons.org/ns#"
   xmlns:rdf="http://www.w3.org/1999/02/22-rdf-syntax-ns#"
   xmlns:svg="http://www.w3.org/2000/svg"
   xmlns="http://www.w3.org/2000/svg"
   xmlns:sodipodi="http://sodipodi.sourceforge.net/DTD/sodipodi-0.dtd"
   xmlns:inkscape="http://www.inkscape.org/namespaces/inkscape"
   width="200mm"
   height="200mm"
   viewBox="0 0 200 200"
   version="1.1"
   id="svg8"
   sodipodi:docname="mountain.svg"
   inkscape:version="0.92.2 5c3e80d, 2017-08-06">
  <defs
     id="defs2" />
  <sodipodi:namedview
     id="base"
     pagecolor="#ffffff"
     bordercolor="#666666"
     borderopacity="1.0"
     inkscape:pageopacity="0.0"
     inkscape:pageshadow="2"
     inkscape:zoom="0.35"
     inkscape:cx="-114.28571"
     inkscape:cy="560.00003"
     inkscape:document-units="mm"
     inkscape:current-layer="layer1"
     showgrid="false"
     inkscape:pagecheckerboard="true"
     inkscape:window-width="1680"
     inkscape:window-height="1003"
     inkscape:window-x="0"
     inkscape:window-y="0"
     inkscape:window-maximized="1"
     fit-margin-top="0"
     fit-margin-left="0"
     fit-margin-right="0"
     fit-margin-bottom="0" />
  <metadata
     id="metadata5">
    <rdf:RDF>
      <cc:Work
         rdf:about="">
        <dc:format>image/svg+xml</dc:format>
        <dc:type
           rdf:resource="http://purl.org/dc/dcmitype/StillImage" />
        <dc:title></dc:title>
      </cc:Work>
    </rdf:RDF>
  </metadata>
  <g
     inkscape:label="Layer 1"
     inkscape:groupmode="layer"
     id="layer1"
     transform="translate(1.8015156e-7,-96.999993)">
    <path
       style="opacity:1;fill:#d1d1d1;fill-opacity:1;stroke:#cfcfcf;stroke-width:0;stroke-linecap:square;stroke-linejoin:miter;stroke-miterlimit:0;stroke-dasharray:none;stroke-opacity:1;paint-order:stroke fill markers"
       inkscape:transform-center-x="0.37797736"
       inkscape:transform-center-y="-29.721771"
       d="m 100,117 50,90 50,90 H 100 2.5692708e-7 L 50,207 Z"
       id="path815"
       inkscape:connector-curvature="0"
       sodipodi:nodetypes="ccccccc" />
    <path
       style="fill:#ffffff;fill-opacity:1;stroke:#ffffff;stroke-width:2.20058894;stroke-linecap:butt;stroke-linejoin:miter;stroke-miterlimit:4;stroke-dasharray:none;stroke-opacity:1"
       d="m 59.778596,188.01673 c 1.696077,-0.72639 4.560115,0.49371 6.369858,0 0.364142,-0.0993 0.440147,-0.73937 0.796235,-0.8689 0.503579,-0.18317 1.088883,0.18318 1.592463,0 0.356085,-0.12953 0.420884,-0.86889 0.796232,-0.86889 0.375347,0 0.460512,1.05207 0.796234,0.86889 0.530821,-0.28963 0.376579,-1.27984 0.796231,-1.73779 0.187675,-0.2048 -0.237391,0.73937 0,0.8689 0.474781,0.25905 1.217119,0.4096 1.592466,0 0.265411,-0.28963 -0.796234,-0.45929 -0.796234,-0.8689 0,-0.28962 0.544443,0.0916 0.796234,0 0.56302,-0.2048 0.998986,-0.86889 1.592464,-0.86889 0.375347,0 -0.530821,1.15853 -0.796232,0.86889 -0.265411,-0.28962 0.460509,-0.68571 0.796232,-0.86889 0.237391,-0.12952 0.558842,0.12953 0.796231,0 0.335721,-0.18318 0.530824,-1.15853 0.796234,-0.86889 0.265411,0.28963 -1.061645,0.57925 -0.796234,0.86889 0.375347,0.4096 1.217119,0.4096 1.592466,0 0.265411,-0.28964 -0.796232,-0.4593 -0.796232,-0.86889 0,-0.57926 1.592464,0.57925 1.592464,0 0,-0.4096 -0.420885,-0.8689 -0.796232,-0.8689 -0.265411,0 -0.187675,0.6641 0,0.8689 0.187675,0.2048 0.558843,0.12953 0.796232,0 0.335722,-0.18318 0.796234,-0.4593 0.796234,-0.8689 0,-0.28963 -1.061645,0 -0.796234,0 0.53082,0 1.061645,0 1.592465,0 0.265411,0 -0.608559,0.2048 -0.796231,0 -0.187675,-0.2048 -0.265414,-0.86889 0,-0.86889 0.593474,0 1.172811,0.41094 1.592463,0.86889 0.187675,0.2048 -0.608559,0.2048 -0.796232,0 -0.187675,-0.2048 -0.187675,-0.66409 0,-0.86889 0.375348,-0.40961 1.592464,0.57926 1.592464,0 0,-1.80807 -1.491958,-0.75922 -0.796232,0 0.375347,0.4096 1.592466,-0.57927 1.592466,0 0,0.28963 -0.608559,0.2048 -0.796234,0 -0.187673,-0.2048 -0.187673,-0.66409 0,-0.8689 0.187675,-0.2048 0.608559,0.20481 0.796234,0 0.187672,-0.2048 -0.265411,-0.86889 0,-0.86889 0.375347,0 0.796232,0.45929 0.796232,0.86889 0,0.28963 -0.60856,0.20481 -0.796232,0 -0.475853,-0.51927 0.485285,-1.73779 0.796232,-1.73779 0.375347,0 0.796231,0.4593 0.796231,0.8689 0,0.28963 -0.608556,0.20479 -0.796231,0 -0.475855,-0.51927 0.485284,-1.73779 0.796231,-1.73779 0.265411,0 0.265411,0.86889 0,0.86889 -0.265411,0 -0.187672,-0.66409 0,-0.86889 0.187675,-0.2048 0.796234,0.28963 0.796234,0 0,-0.4096 -0.420886,-0.86889 -0.796234,-0.86889 -0.265411,0 0.265411,0.86889 0,0.86889 -0.265411,0 -0.187672,-0.66409 0,-0.86889 0.375348,-0.4096 1.592466,0.57926 1.592466,0 0,-0.4096 -0.420884,-0.86889 -0.796232,-0.86889 -0.265413,0 0.265411,0.86889 0,0.86889 -0.265413,0 -0.187675,-0.66409 0,-0.86889 0.187673,-0.2048 0.530821,0 0.796232,0 0.265411,0 0.796232,-0.28964 0.796232,0 0,0.28962 -1.061643,0 -0.796232,0 0.530821,0 1.061643,0 1.592463,0 0.265414,0 -1.061642,0 -0.796231,0 5.219746,0 -2.831049,0 2.388697,0 0.265411,0 -0.796231,0.28962 -0.796231,0 0,-0.28964 0.608556,-0.2048 0.796231,0 0.187675,0.2048 0,0.57926 0,0.86889 0,0.57926 0,1.15852 0,1.73778 0,0.28964 0,-1.15852 0,-0.86889 0,0.57926 0,1.15853 0,1.73779 0,0.28963 0,-1.15853 0,-0.8689 0,0.57927 0.128743,1.17583 0,1.73779 -1.235355,5.39237 -0.796231,-2.61931 -0.796231,2.60669 0,0.28963 -0.26541,-0.8689 0,-0.8689 0.557362,0 -0.238872,1.73779 -0.796235,1.73779 -0.265411,0 -0.187672,-0.66409 0,-0.86889 0.187675,-0.2048 0.530825,0 0.796235,0 0.530821,0 1.061642,0 1.592463,0 0.265411,0 -1.061642,0 -0.796232,0 0.530822,0 1.061643,0 1.592466,0 0.265411,0 -1.061644,0 -0.796234,0 5.219746,0 -2.831049,0 2.388697,0 0.265411,0 -0.608559,0.2048 -0.796231,0 -0.187675,-0.2048 -0.237392,-0.73936 0,-0.8689 0.474781,-0.25905 1.217116,0.4096 1.592463,0 0.265413,-0.28963 -0.420884,-0.86889 -0.796232,-0.86889 -0.26541,0 -0.26541,0.86889 0,0.86889 0.375348,0 0.460513,-0.68571 0.796232,-0.86889 0.237392,-0.12953 0.796234,0.28963 0.796234,0 0,-0.40961 -0.420887,-0.8689 -0.796234,-0.8689 -0.26541,0 0.265413,0.8689 0,0.8689 -0.26541,0 -0.118693,-0.60984 0,-0.8689 0.167861,-0.36636 0.420887,-0.86889 0.796234,-0.86889 0.375349,0 1.061643,0.57926 0.796232,0.86889 -0.419652,0.45795 -1.215884,-1.27983 -0.796232,-1.73779 0.475852,-0.51928 1.592463,0.93918 1.592463,-0.86889 0,-0.4096 -0.420884,-0.86889 -0.796231,-0.86889 -0.26541,0 0,1.15852 0,0.86889 0,-5.59954 0,1.54471 0,-1.73778 0,-0.28964 0,-0.57927 0,-0.8689 0,-0.28963 -0.26541,-0.8689 0,-0.8689 0.375347,0 0.420884,0.8689 0.796231,0.8689 0.265411,0 -0.187672,-0.6641 0,-0.8689 0.187675,-0.2048 0.796235,0.28964 0.796235,0 0,-0.4096 -0.420887,-0.86889 -0.796235,-0.86889 -0.265409,0 -0.265409,0.86889 0,0.86889 0.375348,0 0.460513,-0.68571 0.796235,-0.86889 0.237389,-0.12953 0.796231,0.28963 0.796231,0 0,-2.34491 -1.491959,-0.37961 -0.796231,0 0.474781,0.25905 1.061642,0 1.592463,0 0.265411,0 -1.061642,0 -0.796232,0 5.219737,0 -2.831047,0 2.388698,0 1.061643,0 -2.919518,0.28963 -0.796234,-0.86889 0.474784,-0.25905 1.061647,0 1.592471,0 0.265406,0 -0.796237,0.28962 -0.796237,0 0,-0.28964 0.53082,0 0.796237,0 0.530813,0 1.061636,0 1.592462,0 0.26541,0 -1.061649,0 -0.796232,0 5.219752,0 -2.831052,0 2.388692,0 0.26541,0 -0.79623,0.28962 -0.79623,0 0,-0.28964 0.53082,0 0.79623,0 0.53082,0 1.06164,0 1.59247,0 0.2654,0 -1.06165,0 -0.79623,0 0.53082,0 1.21711,-0.4096 1.59246,0 0.26541,0.28962 -0.67754,0.48031 -0.79623,0.86889 -0.16786,0.54954 0,1.15853 0,1.73779 0,0.28963 -0.26541,-0.8689 0,-0.8689 0.37535,0 0.62837,0.50254 0.79623,0.8689 0.11869,0.25906 -0.26541,0.8689 0,0.8689 5.53081,-0.35079 0.53082,-1.15853 0.79623,-0.8689 0.41966,0.45795 1.32706,0.28963 1.59247,0.8689 0.16786,0.36636 -0.42088,0.86889 -0.79623,0.86889 -0.26542,0 -0.26542,-0.86889 0,-0.86889 0.2654,0 0,0.57926 0,0.86889 0,0.28962 0,0.57926 0,0.86889 0,1.44816 -0.26542,0.86889 1.59246,0.86889 0.2654,0 -0.79623,0.28964 -0.79623,0 0,-1.80806 1.1166,-0.34961 1.59246,-0.86889 1.06164,-1.15852 -1.32706,-0.86889 0.79624,-0.86889 0.2654,0 0.79623,0.28962 0.79623,0 0,-0.4096 -0.42088,-0.86889 -0.79623,-0.86889 -0.26542,0 -0.26542,0.86889 0,0.86889 1.65686,0 0.32038,-1.21852 0.79623,-1.73779 0.18767,-0.20481 0.55884,0.12952 0.79623,0 0.33572,-0.18318 0.53082,-1.15853 0.79623,-0.8689 0.26541,0.28964 -0.42088,0.8689 -0.79623,0.8689 -0.26541,0 0,-0.57926 0,-0.8689 0,-0.28963 -0.18768,-0.66409 0,-0.86889 0.18767,-0.2048 0.60855,0.2048 0.79623,0 0.18767,-0.2048 -0.18768,-0.66409 0,-0.86889 0.18767,-0.2048 0.53082,0 0.79624,0 0.79623,0 1.59246,0 2.38869,0 0.26541,0 -0.79623,0.28962 -0.79623,0 0,-0.28964 0.53082,0 0.79623,0 0.53082,0 1.06164,0 1.59247,0 0.2654,0 -1.06165,0 -0.79623,0 5.21974,0 -2.83106,0 2.38869,0 0.26541,0 -0.79623,0.28962 -0.79623,0 0,-0.28964 0.53082,0 0.79623,0 0.53082,0 1.06164,0 1.59247,0 1.32705,0 2.6541,0 3.98116,0 0.2654,0 -0.79623,0.28962 -0.79623,0 0,-0.4096 0.42088,-0.8689 0.79623,-0.8689 0.2654,0 -0.23739,0.73937 0,0.8689 0.47478,0.25905 1.06163,0 1.59246,0 0.26541,0 -0.79623,0.28962 -0.79623,0 0,-0.28964 0.53082,0 0.79623,0 0.26541,0 0.60856,-0.2048 0.79624,0 0.18767,0.2048 0,0.57926 0,0.86889 0,0.57926 0,1.15853 0,1.73779 0,0.28963 -0.26542,-0.8689 0,-0.8689 0.2654,0 -0.1187,0.60984 0,0.8689 0.16786,0.36635 0.62837,0.50253 0.79623,0.8689 0.11869,0.25905 0.2654,0.86889 0,0.86889 -0.26542,0 -0.26542,-0.86889 0,-0.86889 0.2654,0 -0.18768,0.66409 0,0.86889 0.18767,0.2048 0.53082,0 0.79623,0 0.2654,0 0.67753,0.25905 0.79623,0 0.23739,-0.51811 -0.23739,-1.21968 0,-1.73779 1.06164,-2.31706 0.79624,2.60668 0.79624,-0.8689 0,-0.28963 -0.18769,-0.66409 0,-0.86889 0.39811,-0.43445 1.99058,0.43445 2.38869,0 0.18767,-0.2048 0,-0.57927 0,-0.86889"
       id="path821"
       inkscape:connector-curvature="0" />
    <path
       style="opacity:1;fill:#ffffff;fill-opacity:1;stroke:#ffffff;stroke-width:21.59730148;stroke-linecap:square;stroke-linejoin:miter;stroke-miterlimit:4;stroke-dasharray:none;stroke-opacity:1;paint-order:stroke fill markers"
       d="m 234.28571,704.47083 c 0,-3.03914 137.12524,-250.43703 141.40295,-255.11561 2.71498,-2.96942 15.03085,17.19425 60.0289,98.27994 52.69198,94.95002 56.25384,102.27855 51.42591,105.80882 -4.40238,3.21909 -5.71142,3.07608 -8.65186,-0.9452 -2.86008,-3.9114 -8.14091,-4.63403 -30.26384,-4.14132 -24.78139,0.55192 -27.24367,1.13676 -32.70237,7.76754 -4.39307,5.33634 -7.31664,6.59635 -11.42857,4.92555 -3.03897,-1.23484 -5.5254,-4.17372 -5.5254,-6.53086 0,-3.36022 -4.31899,-4.37901 -20,-4.71773 -16.43764,-0.35506 -21.10829,0.58971 -26.22219,5.30415 -3.4222,3.15489 -5.57917,7.41182 -4.79327,9.45985 0.7859,2.04803 -0.88522,8.0183 -3.71361,13.26728 l -5.14252,9.54359 -1.49278,-11.42857 c -1.43781,-11.0078 -1.91355,-11.45802 -12.92135,-12.2284 -9.92252,-0.69442 -12.01713,0.24686 -15.89486,7.14286 -7.21427,12.82957 -74.10514,43.16587 -74.10514,33.60811 z"
       id="path823"
       inkscape:connector-curvature="0"
       transform="scale(0.26458333)" />
    <path
       style="fill:none;stroke:#000000;stroke-width:4;stroke-linecap:butt;stroke-linejoin:miter;stroke-miterlimit:4;stroke-dasharray:none;stroke-opacity:1"
       d="m 113.39286,148.83334 c 0,-64.255961 0,-66.523819 0,0 z"
       id="path825"
       inkscape:connector-curvature="0" />
    <path
       sodipodi:type="star"
       style="opacity:1;fill:#ff0000;fill-opacity:1;stroke:#ff0000;stroke-width:0.26499999;stroke-linecap:square;stroke-linejoin:miter;stroke-miterlimit:4;stroke-dasharray:none;stroke-opacity:1;paint-order:stroke fill markers"
       id="path827"
       sodipodi:sides="3"
       sodipodi:cx="122.46428"
       sodipodi:cy="110.27976"
       sodipodi:r1="13.607142"
       sodipodi:r2="6.8035717"
       sodipodi:arg1="0"
       sodipodi:arg2="1.0471976"
       inkscape:flatsided="false"
       inkscape:rounded="0"
       inkscape:randomized="0"
       d="m 136.07142,110.27976 -10.20536,5.89207 -10.20535,5.89206 0,-11.78413 0,-11.784129 10.20536,5.892069 z"
       inkscape:transform-center-x="-4.6928915"
       inkscape:transform-center-y="-1.2369704e-06"
       transform="matrix(1.3795376,0,0,1,-45.40949,1.5119048)" />
  </g>
</svg>
